<svg width="512" height="512" version="1.1" viewBox="0 0 33.762 33.503" xmlns="http://www.w3.org/2000/svg">
 <path d="m13.706 33.436c-2.0203-0.38858-5.0268-1.628-6.7583-2.7861-4.7251-3.1604-7.2005-7.9671-6.9276-13.452 0.15025-3.0198 0.60844-4.567 2.0702-6.9906l1.1018-1.8268-0.43161-1.3692c-0.50618-1.6058-0.61901-7.0113-0.14635-7.0113 0.15689 0 1.6874 0.83841 3.4011 1.8631l3.1159 1.8631 2.089-0.72881c1.8809-0.65621 2.4448-0.72881 5.6609-0.72881s3.78 0.0726 5.6609 0.72881l2.089 0.72881 3.1159-1.8631c1.7137-1.0247 3.2442-1.8631 3.4011-1.8631 0.47266 0 0.35984 5.4055-0.14635 7.0113l-0.43161 1.3692 1.1018 1.8268c1.4618 2.4237 1.92 3.9709 2.0702 6.9906 0.27067 5.44-2.2304 10.31-6.8975 13.432-2.9764 1.9907-5.4164 2.7371-9.3019 2.8451-1.7462 0.04857-3.4727 0.03106-3.8365-0.03891zm7.417-9.7604c0.93064-0.48125 1.6416-1.7476 1.5286-2.7228-0.11589-0.99999-0.91683-1.0824-1.3209-0.13582-0.55482 1.2996-1.0251 1.6725-2.1094 1.6725-1.0017 0-1.0173-0.01541-1.0173-1.0064 0-0.79794 0.18704-1.1877 0.90289-1.8815 1.0862-1.0528 1.2824-1.6588 0.77265-2.3866-0.34275-0.48935-0.65525-0.54628-2.9985-0.54628s-2.6557 0.05693-2.9985 0.54628c-0.50975 0.72776-0.31354 1.3338 0.77265 2.3866 0.71585 0.69382 0.90289 1.0836 0.90289 1.8815 0 0.99102-0.01558 1.0064-1.0173 1.0064-1.0844 0-1.5546-0.37284-2.1094-1.6725-0.3833-0.89787-1.1965-0.86927-1.3267 0.04666-0.13495 0.94903 0.48709 2.1641 1.3897 2.7145 0.6891 0.42021 1.3578 0.49704 4.3337 0.49788 2.6294 7.94e-4 3.7151-0.10046 4.295-0.40036zm-10.129-7.4097c1.1189-1.2878 0.58918-3.5043-0.96717-4.0469-2.1669-0.75539-4.2687 1.6589-3.1934 3.6682 0.75302 1.407 3.0828 1.619 4.1605 0.37862zm-2.6931-0.80683c-0.58696-0.58696-0.51598-1.3361 0.17226-1.8182 0.73238-0.51298 0.86092-0.51262 1.3774 0.0039 0.57476 0.57476 0.52323 1.6248-0.096 1.9562-0.69529 0.37211-0.96615 0.34567-1.4537-0.14188zm17.581 1.3391c1.4684-0.75935 1.7659-2.4666 0.65906-3.782-1.5717-1.8678-4.3685-0.84353-4.3685 1.5999 0 2.0123 1.889 3.1235 3.7095 2.1821zm-1.9235-1.2091c-0.57564-0.33528-0.60127-1.3903-0.04725-1.9443 0.51651-0.51651 0.64505-0.51688 1.3774-0.0039 0.68824 0.48207 0.75922 1.2312 0.17226 1.8182-0.47833 0.47833-0.8493 0.51043-1.5025 0.13z" stroke-width=".26458"/>
</svg>
